<?xml version="1.0" encoding="UTF-8"?>
<svg width="700pt" height="700pt" version="1.1" viewBox="0 0 700 700" xmlns="http://www.w3.org/2000/svg" xmlns:xlink="http://www.w3.org/1999/xlink">
 <path transform="matrix(5.7143 0 0 5.7143 112.71 0)" d="m40.39 74.69 9.9395 2.3099s1.7603 0.62002 1.7603-1.5497v-0.19004c0-2.61 0.49014-3.7898 5.2097-8.8901h6.84e-4c5.8153-4.5438 9.1499-11.562 8.9995-18.94 0-8.8833-4.7394-17.092-12.433-21.533-7.6932-4.442-17.171-4.442-24.865 0-7.6932 4.4413-12.433 12.65-12.433 21.533-0.077247 7.363 3.243 14.35 9.0002 18.94 4.7202 5.1003 5.17 6.2802 5.2097 8.8901v1.2599c0 1.2899-0.28027 2.4302 1.1901 2.88l19.17 4.2198" fill="none" stroke="#000" stroke-linecap="round" stroke-linejoin="round" stroke-width="4"/>
 <path transform="matrix(5.7143 0 0 5.7143 112.71 0)" d="m31.95 85.78 18.95 4.2998" fill="none" stroke="#000" stroke-linecap="round" stroke-linejoin="round" stroke-width="4"/>
 <path transform="matrix(5.7143 0 0 5.7143 112.71 0)" d="m33.14 92.55 15.39 3.4501" fill="none" stroke="#000" stroke-linecap="round" stroke-linejoin="round" stroke-width="4"/>
 <path transform="matrix(5.7143 0 0 5.7143 112.71 0)" d="m41.53 2.0002v7.2598" fill="none" stroke="#000" stroke-linecap="round" stroke-linejoin="round" stroke-width="4"/>
 <path transform="matrix(5.7143 0 0 5.7143 112.71 0)" d="m18.71 8.1102 3.6299 6.2897" fill="none" stroke="#000" stroke-linecap="round" stroke-linejoin="round" stroke-width="4"/>
 <path transform="matrix(5.7143 0 0 5.7143 112.71 0)" d="m2.0003 24.82 6.2897 3.6299" fill="none" stroke="#000" stroke-linecap="round" stroke-linejoin="round" stroke-width="4"/>
 <path transform="matrix(5.7143 0 0 5.7143 112.71 0)" d="m74.77 28.45 6.2795-3.6299" fill="none" stroke="#000" stroke-linecap="round" stroke-linejoin="round" stroke-width="4"/>
 <path transform="matrix(5.7143 0 0 5.7143 112.71 0)" d="m60.72 14.4 3.6299-6.2897" fill="none" stroke="#000" stroke-linecap="round" stroke-linejoin="round" stroke-width="4"/>
</svg>
