<?xml version="1.0" encoding="UTF-8"?>
<svg width="700pt" height="700pt" version="1.1" viewBox="0 0 700 700" xmlns="http://www.w3.org/2000/svg">
 <path d="m199.26 42.043c-3.4805 0.10547-6.793 1.5-9.3008 3.9141 0 0-18.977 18.34-38.039 42.137-19.062 23.801-39.922 51.598-39.922 80.582 0 48.781 39.312 88.84 87.691 88.84 48.387 0 87.691-40.059 87.691-88.84 0-28.984-20.855-56.781-39.922-80.582-19.062-23.797-38.039-42.137-38.039-42.137h0.007812c-2.7227-2.625-6.3906-4.0352-10.168-3.9141zm0.52734 34.008c6.8359 7.1914 16.246 17.488 25.922 29.566 17.785 22.199 33.777 50.73 33.777 63.078 0 33.883-26.68 60.844-59.699 60.844-33.016 0-59.695-26.961-59.695-60.844 0-12.348 15.988-40.879 33.773-63.078 9.6758-12.078 19.086-22.379 25.922-29.566zm217.72 24.32v-0.003906c-3.3945 0.14453-6.6211 1.5156-9.0781 3.8633 0 0-39.539 37.555-79.168 86.137-39.637 48.582-81.121 106.68-81.121 158.09 0 93.469 76.27 169.5 169.93 169.5 93.664 0 169.93-76.031 169.93-169.5 0-51.41-41.48-109.52-81.117-158.09-39.629-48.582-79.168-86.137-79.168-86.137-2.7383-2.6133-6.4219-4.0078-10.207-3.8633zm0.58203 33.625c13.719 13.707 40.289 41.16 67.125 74.047 38.332 46.988 74.816 105.93 74.816 140.4 0 78.297-63.363 141.5-141.94 141.5-78.57 0-141.93-63.207-141.93-141.5 0-34.465 36.48-93.41 74.816-140.4 26.828-32.891 53.406-60.34 67.117-74.047zm106.71 210.18 0.003906-0.003906c-6.1367-0.042969-11.586 3.9102-13.445 9.7539-14.246 42.699-48.441 76.43-91.527 90.125v0.003907c-3.5703 1.0977-6.5547 3.5742-8.2852 6.8867-1.7344 3.3086-2.0742 7.1758-0.94141 10.734 1.1328 3.5625 3.6406 6.5195 6.9688 8.2227 3.3281 1.6992 7.1953 2 10.746 0.83203 51.633-16.414 92.496-56.707 109.6-107.94 1.4922-4.2656 0.83203-8.9883-1.7695-12.68-2.6016-3.6953-6.8281-5.9062-11.344-5.9375z"/>
</svg>
